<svg xmlns="http://www.w3.org/2000/svg" width="326" height="120" viewBox="0 0 326 120" fill="none">
                        <g clip-path="url(#clip0_535_1905)">
                        <path d="M227.194 119.659L221.844 104.544H224.022L228.366 117.648H228.413L232.805 104.544H234.912L229.503 119.659H227.194Z" fill="#231F20"></path>
                        <path d="M251.295 104.544V106.238H242.819V111.049H250.726V112.743H242.819V117.965H251.354V119.659H240.795V104.544H251.295Z" fill="#231F20"></path>
                        <path d="M260.196 104.544L268.21 116.801H268.257V104.544H270.175V119.659H267.962L260.007 107.532H259.971V119.659H258.054V104.544H260.196Z" fill="#231F20"></path>
                        <path d="M288.31 118.541C287.078 119.583 285.485 120.106 283.871 120C282.222 120.099 280.592 119.607 279.278 118.612C278.692 118.044 278.24 117.354 277.955 116.591C277.671 115.828 277.561 115.012 277.633 114.201V104.544H279.657V114.201C279.614 114.76 279.689 115.322 279.876 115.85C280.064 116.379 280.36 116.863 280.746 117.271C281.17 117.645 281.665 117.931 282.202 118.112C282.738 118.294 283.306 118.368 283.871 118.33C284.41 118.367 284.95 118.292 285.458 118.11C285.965 117.928 286.429 117.642 286.819 117.271C287.551 116.421 287.917 115.318 287.837 114.201V104.544H289.861V114.201C289.921 114.992 289.814 115.787 289.547 116.534C289.28 117.281 288.859 117.965 288.31 118.541" fill="#231F20"></path>
                        <path d="M307.865 104.544V106.238H299.389V111.049H307.285V112.743H299.389V117.965H307.924V119.659H297.365V104.544H307.865Z" fill="#231F20"></path>
                        <path d="M322.259 106.603C321.482 106.093 320.561 105.845 319.631 105.897C319.21 105.899 318.789 105.942 318.376 106.026C317.986 106.099 317.613 106.243 317.276 106.45C316.96 106.648 316.697 106.918 316.506 107.238C316.306 107.623 316.208 108.052 316.222 108.485C316.208 108.698 316.237 108.913 316.308 109.115C316.379 109.317 316.491 109.503 316.636 109.661C316.95 109.975 317.33 110.216 317.749 110.367C318.254 110.568 318.777 110.721 319.312 110.825L321.087 111.213C321.691 111.355 322.271 111.531 322.875 111.719C323.43 111.897 323.956 112.155 324.437 112.484C325.197 113.084 325.714 113.936 325.894 114.884C326.075 115.832 325.906 116.813 325.42 117.647C325.061 118.208 324.584 118.686 324.023 119.047C323.435 119.408 322.791 119.67 322.117 119.824C321.431 119.985 320.728 120.068 320.022 120.071C319.202 120.075 318.386 119.968 317.595 119.753C316.873 119.56 316.194 119.233 315.595 118.788C315.015 118.355 314.549 117.791 314.233 117.142C313.891 116.405 313.721 115.601 313.736 114.789H315.654C315.637 115.36 315.763 115.926 316.021 116.436C316.258 116.895 316.593 117.296 317.003 117.612C317.43 117.92 317.912 118.143 318.424 118.271C318.965 118.413 319.522 118.484 320.081 118.483C320.542 118.48 321.001 118.436 321.454 118.353C321.869 118.27 322.268 118.123 322.638 117.918C323.007 117.723 323.317 117.435 323.538 117.083C323.779 116.673 323.898 116.204 323.881 115.73C323.903 115.271 323.755 114.819 323.467 114.46C323.159 114.116 322.779 113.843 322.354 113.66C321.85 113.447 321.327 113.281 320.791 113.166L319.004 112.766C318.404 112.641 317.812 112.488 317.228 112.307C316.68 112.143 316.155 111.91 315.666 111.613C315.208 111.312 314.828 110.909 314.553 110.437C314.261 109.908 314.118 109.311 314.139 108.708C314.121 108.02 314.284 107.339 314.612 106.732C314.898 106.191 315.303 105.721 315.796 105.356C316.335 104.994 316.931 104.723 317.56 104.556C318.94 104.187 320.394 104.187 321.774 104.556C322.41 104.721 323.006 105.013 323.526 105.415C324.032 105.814 324.438 106.325 324.709 106.908C325.019 107.585 325.185 108.318 325.195 109.061H323.277C323.259 108.608 323.144 108.164 322.94 107.758C322.736 107.353 322.447 106.995 322.093 106.708" fill="#231F20"></path>
                        <path d="M198.334 112.425H156.951V114.189H198.334V112.425Z" fill="#231F20"></path>
                        <path d="M43.8215 0.0352783C19.6379 0.0352783 0.0234375 18.5258 0.0234375 41.3331C0.0234375 64.1403 19.6261 82.6426 43.8215 82.6426C68.017 82.6426 87.6197 64.1521 87.6197 41.3331C87.6197 18.514 67.9579 0.0352783 43.8215 0.0352783ZM43.8215 73.2327C24.8818 73.2327 9.4933 58.9296 9.4933 41.3331C9.4933 23.7365 24.8818 9.4452 43.8215 9.4452C62.7613 9.4452 78.1498 23.7483 78.1498 41.3331C78.1498 58.9178 62.7613 73.2327 43.8215 73.2327Z" fill="#231F20"></path>
                        <path d="M186.592 0.964478V81.5487H237.291V72.6563H197.707C197.135 72.6563 196.585 72.4311 196.179 72.03C195.774 71.6289 195.544 71.0844 195.541 70.5156V46.0262C195.541 45.7441 195.597 45.4647 195.706 45.2042C195.815 44.9438 195.975 44.7072 196.176 44.5083C196.377 44.3094 196.616 44.1519 196.879 44.045C197.142 43.9381 197.423 43.8839 197.707 43.8855H224.732V34.9931H197.707C197.133 34.9931 196.582 34.7663 196.175 34.3626C195.769 33.9589 195.541 33.4115 195.541 32.8406V11.9976C195.541 11.4267 195.769 10.8792 196.175 10.4756C196.582 10.0719 197.133 9.84508 197.707 9.84508H237.303V0.964478H186.592Z" fill="#231F20"></path>
                        <path d="M315.654 0.846927V49.6962C315.657 50.1426 315.509 50.577 315.233 50.9295C314.958 51.282 314.571 51.532 314.135 51.6393C313.699 51.7466 313.239 51.7049 312.83 51.521C312.42 51.3371 312.085 51.0216 311.878 50.6254C300.183 29.159 282.415 10.9273 262.978 0.752808H253.946V81.5487H263.026V13.8444C263.024 13.4432 263.131 13.049 263.336 12.7032C263.541 12.3574 263.835 12.0728 264.189 11.8791C264.542 11.6854 264.942 11.5898 265.345 11.6024C265.749 11.615 266.141 11.7353 266.482 11.9506C289.056 26.3831 307.984 52.7897 315.666 81.2429V81.5605H324.745V0.846927H315.654Z" fill="#231F20"></path>
                        <path d="M142.13 1.0116H105.115V1.10572H104.831V81.5958H113.662V68.1279C113.661 66.8641 114.081 65.6354 114.856 64.6334C115.631 63.6314 116.718 62.9122 117.947 62.5878L148.215 54.4835C154.21 52.9858 159.534 49.5497 163.348 44.7159C167.163 39.8822 169.251 33.9253 169.285 27.7828C169.487 13.0563 156.927 1.0116 142.059 1.0116H142.13ZM155.424 41.2037C152.856 43.781 149.625 45.6079 146.084 46.485L115.84 54.5776C115.587 54.6502 115.321 54.6637 115.062 54.6171C114.804 54.5705 114.559 54.4651 114.348 54.309C114.137 54.153 113.966 53.9505 113.846 53.7176C113.727 53.4846 113.664 53.2274 113.662 52.9661V11.4802C113.662 10.8874 113.899 10.319 114.32 9.89988C114.742 9.48076 115.314 9.24528 115.911 9.24528H142.367C147.185 9.20236 151.829 11.0297 155.311 14.3382C158.793 17.6468 160.839 22.1752 161.011 26.9595C161.071 29.5825 160.608 32.1914 159.649 34.6359C158.69 37.0805 157.254 39.3126 155.424 41.2037" fill="#231F20"></path>
                        </g>
                        <defs>
                        <clipPath id="clip0_535_1905">
                        <rect width="326" height="120" fill="white"></rect>
                        </clipPath>
                        </defs>
                        </svg>