<svg width="30" height="32" viewBox="0 0 30 32" fill="none" xmlns="http://www.w3.org/2000/svg">
<path fill-rule="evenodd" clip-rule="evenodd" d="M1.875 15.9997C1.875 15.7345 1.97377 15.4801 2.14959 15.2926C2.3254 15.1051 2.56386 14.9997 2.8125 14.9997L24.9244 14.9997L19.0238 8.70771C18.8477 8.51994 18.7488 8.26526 18.7488 7.99971C18.7488 7.73416 18.8477 7.47949 19.0238 7.29171C19.1998 7.10394 19.4385 6.99845 19.6875 6.99845C19.9365 6.99845 20.1752 7.10394 20.3513 7.29171L27.8513 15.2917C27.9386 15.3846 28.0078 15.495 28.0551 15.6164C28.1024 15.7379 28.1267 15.8682 28.1267 15.9997C28.1267 16.1312 28.1024 16.2615 28.0551 16.383C28.0078 16.5045 27.9386 16.6148 27.8513 16.7077L20.3513 24.7077C20.1752 24.8955 19.9365 25.001 19.6875 25.001C19.4385 25.001 19.1998 24.8955 19.0238 24.7077C18.8477 24.5199 18.7488 24.2653 18.7488 23.9997C18.7488 23.7342 18.8477 23.4795 19.0238 23.2917L24.9244 16.9997L2.8125 16.9997C2.56386 16.9997 2.3254 16.8944 2.14959 16.7068C1.97377 16.5193 1.875 16.2649 1.875 15.9997Z" fill="#CDCDCD"/>
</svg>
