<svg width="1440" height="917" viewBox="0 0 1440 917" fill="none" xmlns="http://www.w3.org/2000/svg">
<path d="M-164 56.0055H-5.94292C-4.06712 56.0055 -2.2682 56.7709 -0.941818 58.1333C0.384567 59.4957 1.12979 61.3435 1.12979 63.2702V340H44.8701V63.2702C44.8701 61.3435 45.6152 59.4957 46.9416 58.1333C48.268 56.7709 50.0671 56.0055 51.9429 56.0055H210V0H-164V56.0055Z" fill="#F3F0E9"/>
<path d="M645.296 146.075H316.704C315.751 146.075 314.806 145.887 313.925 145.522C313.043 145.157 312.242 144.622 311.568 143.948C310.893 143.273 310.358 142.473 309.993 141.592C309.628 140.71 309.44 139.766 309.44 138.812V0.0515085H264V340H309.44V210.562C309.44 209.608 309.628 208.664 309.993 207.783C310.358 206.902 310.893 206.101 311.568 205.427C312.242 204.752 313.043 204.217 313.925 203.852C314.806 203.487 315.751 203.299 316.704 203.299H645.296C647.222 203.299 649.07 204.065 650.432 205.427C651.794 206.789 652.56 208.636 652.56 210.562V339.948H698V0H652.56V138.709C652.573 139.672 652.396 140.627 652.037 141.52C651.678 142.413 651.145 143.226 650.469 143.911C649.793 144.597 648.988 145.141 648.099 145.512C647.211 145.884 646.258 146.075 645.296 146.075Z" fill="#F3F0E9"/>
<path d="M-15 917H28.3082V790.095C28.3082 788.185 29.0375 786.354 30.3359 785.004C31.6343 783.653 33.3956 782.895 35.2318 782.895H233.752V727.843H35.2318C33.3956 727.843 31.6343 727.084 30.3359 725.734C29.0375 724.383 28.3082 722.552 28.3082 720.642V642.712C28.3082 640.802 29.0375 638.971 30.3359 637.62C31.6343 636.27 33.3956 635.511 35.2318 635.511H253V580H-15V917Z" fill="#F3F0E9"/>
<path d="M1018.4 916.949L1128.97 665.207C1129.52 663.945 1130.41 662.874 1131.53 662.123C1132.65 661.372 1133.95 660.972 1135.29 660.972C1136.62 660.972 1137.93 661.372 1139.05 662.123C1140.17 662.874 1141.06 663.945 1141.61 665.207L1252.18 916.949H1315.02L1425.59 665.207C1426.14 663.945 1427.03 662.874 1428.15 662.123C1429.27 661.372 1430.57 660.972 1431.91 660.972C1433.24 660.972 1434.55 661.372 1435.67 662.123C1436.79 662.874 1437.68 663.945 1438.23 665.207L1548.75 916.949H1596L1454.5 580H1409.32L1291.32 860.484C1290.64 862.078 1289.53 863.432 1288.13 864.383C1286.72 865.334 1285.08 865.84 1283.4 865.84C1281.72 865.84 1280.08 865.334 1278.68 864.383C1277.27 863.432 1276.16 862.078 1275.49 860.484L1157.68 580.051H1112.5L971 917L1018.4 916.949Z" fill="#F3F0E9"/>
<path d="M649.071 917L682.624 840.409C683.27 838.887 684.327 837.593 685.667 836.687C687.006 835.78 688.57 835.299 690.167 835.303H840.833C842.426 835.318 843.982 835.807 845.318 836.711C846.654 837.615 847.715 838.898 848.376 840.409L881.929 917H929L787.983 580H742.969L602 917H649.071ZM712.061 772.601L761.043 660.88C761.444 660.017 762.07 659.289 762.85 658.779C763.629 658.27 764.531 658 765.451 658C766.371 658 767.273 658.27 768.053 658.779C768.832 659.289 769.458 660.017 769.859 660.88L818.841 772.601C819.164 773.371 819.299 774.213 819.234 775.051C819.17 775.889 818.908 776.698 818.472 777.405C818.036 778.112 817.439 778.696 816.734 779.105C816.03 779.514 815.239 779.735 814.432 779.749H716.47C715.663 779.735 714.873 779.514 714.168 779.105C713.463 778.696 712.866 778.112 712.43 777.405C711.994 776.698 711.732 775.889 711.668 775.051C711.603 774.213 711.739 773.371 712.061 772.601Z" fill="#F3F0E9"/>
<path d="M364.472 580H321V917H570V861.446H371.421C369.578 861.446 367.81 860.688 366.507 859.337C365.204 857.987 364.472 856.156 364.472 854.246V580Z" fill="#F3F0E9"/>
</svg>
