<svg width="89" height="25" viewBox="0 0 89 25" fill="none" xmlns="http://www.w3.org/2000/svg">
<g clip-path="url(#clip0_483_1018)">
<path d="M44.45 3.03013C42.2068 2.9823 39.9828 3.45186 37.9503 4.4022C35.9179 5.35253 34.1316 6.75808 32.73 8.51011C32.11 9.25391 31.561 10.0542 31.09 10.9002C30.4611 12.0236 30.1366 13.2916 30.1486 14.579C30.1605 15.8663 30.5086 17.1282 31.1583 18.2396C31.808 19.351 32.7367 20.2733 33.8526 20.9154C34.9684 21.5575 36.2326 21.8971 37.52 21.9002H51.05C52.3324 21.8995 53.5925 21.5642 54.706 20.9281C55.8196 20.292 56.7481 19.3766 57.4002 18.2723C58.0523 17.168 58.4053 15.913 58.4246 14.6307C58.4438 13.3484 58.1286 12.0832 57.51 10.9598C57.0514 10.1179 56.5194 9.31843 55.92 8.57017C54.5753 6.81324 52.8369 5.39667 50.8447 4.43442C48.8525 3.47218 46.6621 2.99111 44.45 3.03013ZM0 24.9203L0.0999985 21.8099L17.96 21.91C19.6311 21.9179 21.2546 21.3538 22.5607 20.3114C23.8669 19.269 24.777 17.8112 25.14 16.18C25.9077 12.4398 27.6854 8.98127 30.28 6.18003C32.0614 4.19439 34.2483 2.61412 36.6929 1.54624C39.1374 0.478364 41.7827 -0.0521823 44.45 -0.00991108C47.083 -0.0539886 49.6939 0.476056 52.1013 1.54331C54.5087 2.61057 56.6547 4.18959 58.39 6.17026C60.9231 8.99504 62.65 12.4489 63.39 16.1703C63.7624 17.8009 64.6756 19.2573 65.9811 20.3031C67.2865 21.3489 68.9073 21.9224 70.58 21.93H88.52L88.42 24.93L0 24.9203Z" fill="#AF663F"/>
</g>
<defs>
<clipPath id="clip0_483_1018">
<rect width="88.54" height="24.92" fill="white"/>
</clipPath>
</defs>
</svg>
