<svg width="155" height="156" viewBox="0 0 155 156" fill="none" xmlns="http://www.w3.org/2000/svg">
<g clip-path="url(#clip0_541_3703)">
<path d="M77.5801 130.42C75.0352 130.365 72.5119 130.896 70.2054 131.973C67.899 133.05 65.8715 134.643 64.2801 136.63C63.5778 137.474 62.9551 138.381 62.4201 139.34C61.703 140.614 61.3317 142.054 61.3432 143.516C61.3547 144.978 61.7485 146.411 62.4856 147.674C63.2226 148.937 64.2772 149.985 65.5446 150.714C66.8119 151.443 68.248 151.828 69.7101 151.83H85.0601C86.5152 151.83 87.9451 151.451 89.2088 150.73C90.4725 150.008 91.5264 148.97 92.2664 147.717C93.0064 146.464 93.407 145.04 93.4287 143.585C93.4504 142.13 93.0924 140.694 92.3901 139.42C91.8663 138.466 91.2607 137.559 90.5801 136.71C89.058 134.716 87.0884 133.107 84.8301 132.015C82.5719 130.922 80.0884 130.376 77.5801 130.42ZM0.0800781 155.25L0.190094 151.71L47.5201 151.83C49.4158 151.837 51.2572 151.197 52.7393 150.015C54.2214 148.833 55.2554 147.18 55.6701 145.33C56.5423 141.094 58.5546 137.176 61.4901 134C63.5157 131.751 66.0001 129.963 68.7757 128.755C71.5513 127.547 74.5536 126.949 77.5801 127C80.5656 126.949 83.5264 127.548 86.2567 128.757C88.987 129.966 91.4212 131.755 93.3901 134C96.2665 137.188 98.232 141.091 99.0801 145.3C99.5022 147.151 100.538 148.805 102.02 149.992C103.502 151.18 105.341 151.831 107.24 151.84H154.66L154.55 155.26L0.0800781 155.25Z" fill="#F4F7F4"/>
<path d="M77.5801 130.42C75.0352 130.365 72.5119 130.896 70.2054 131.973C67.899 133.05 65.8715 134.643 64.2801 136.63C63.5778 137.474 62.9551 138.381 62.4201 139.34C61.703 140.614 61.3317 142.054 61.3432 143.516C61.3547 144.978 61.7485 146.411 62.4856 147.674C63.2226 148.937 64.2772 149.985 65.5446 150.714C66.8119 151.443 68.248 151.828 69.7101 151.83H85.0601C86.5152 151.83 87.9451 151.451 89.2088 150.73C90.4726 150.008 91.5264 148.97 92.2664 147.717C93.0064 146.464 93.407 145.04 93.4287 143.585C93.4504 142.13 93.0924 140.694 92.3901 139.42C91.8663 138.466 91.2607 137.559 90.5801 136.71C89.058 134.716 87.0884 133.107 84.8301 132.015C82.5719 130.922 80.0884 130.376 77.5801 130.42V130.42ZM0.0800781 155.25L0.190094 151.71L47.5201 151.83C49.4158 151.837 51.2572 151.197 52.7393 150.015C54.2214 148.833 55.2554 147.18 55.6701 145.33C56.5423 141.094 58.5546 137.176 61.4901 134C63.5157 131.751 66.0001 129.963 68.7757 128.755C71.5513 127.547 74.5536 126.949 77.5801 127C80.5656 126.949 83.5264 127.548 86.2567 128.757C88.987 129.966 91.4212 131.755 93.3901 134C96.2666 137.188 98.232 141.091 99.0801 145.3C99.5022 147.151 100.538 148.805 102.02 149.992C103.502 151.18 105.341 151.831 107.24 151.84H154.66L154.55 155.26L0.0800781 155.25Z" stroke="#F4F7F4" stroke-width="0.16" stroke-linejoin="round"/>
<path d="M2.46986 121.36C2.46031 121.976 2.60991 122.585 2.90422 123.126C3.19853 123.667 3.62759 124.123 4.14986 124.45C5.66084 125.334 7.40343 125.742 9.14986 125.62C10.9591 125.737 12.7646 125.342 14.3598 124.48C14.9049 124.165 15.3555 123.709 15.665 123.16C15.9745 122.612 16.1315 121.99 16.1199 121.36C16.146 120.843 16.0415 120.327 15.8161 119.86C15.5906 119.394 15.2515 118.992 14.8298 118.69C13.8186 118.028 12.6474 117.651 11.4399 117.6L11.6998 115.53C13.3853 115.563 15.0059 116.186 16.2799 117.29C16.8388 117.807 17.28 118.437 17.5733 119.14C17.8667 119.842 18.0053 120.6 17.9798 121.36C17.9948 122.238 17.8078 123.107 17.4332 123.901C17.0587 124.695 16.5067 125.394 15.8199 125.94C14.3665 127.147 12.1432 127.753 9.14986 127.76C6.89274 127.905 4.65614 127.254 2.82985 125.92C2.13353 125.382 1.5709 124.691 1.18581 123.9C0.800718 123.109 0.603594 122.24 0.609848 121.36C0.59269 120.633 0.727993 119.91 1.007 119.238C1.28602 118.567 1.70255 117.961 2.22984 117.46C3.37535 116.38 4.8515 115.718 6.41985 115.58L6.76985 117.58C5.6588 117.722 4.60043 118.138 3.68987 118.79C3.29361 119.088 2.97556 119.477 2.76305 119.925C2.55053 120.372 2.44992 120.865 2.46986 121.36Z" fill="#F4F7F4"/>
<path d="M2.46986 121.36C2.46031 121.976 2.60991 122.585 2.90422 123.126C3.19853 123.667 3.62759 124.123 4.14986 124.45C5.66084 125.334 7.40343 125.742 9.14986 125.62C10.9591 125.737 12.7646 125.342 14.3598 124.48C14.9049 124.165 15.3555 123.709 15.665 123.16C15.9745 122.612 16.1315 121.99 16.1199 121.36C16.146 120.843 16.0415 120.327 15.8161 119.86C15.5906 119.394 15.2515 118.992 14.8298 118.69C13.8186 118.028 12.6474 117.651 11.4399 117.6L11.6998 115.53C13.3853 115.563 15.0059 116.186 16.2799 117.29C16.8388 117.807 17.28 118.437 17.5733 119.14C17.8667 119.842 18.0053 120.6 17.9798 121.36C17.9948 122.238 17.8078 123.107 17.4332 123.901C17.0587 124.695 16.5067 125.394 15.8199 125.94C14.3665 127.147 12.1432 127.753 9.14986 127.76C6.89274 127.905 4.65614 127.254 2.82985 125.92C2.13353 125.382 1.5709 124.691 1.18581 123.9C0.800718 123.109 0.603594 122.24 0.609848 121.36C0.59269 120.633 0.727993 119.91 1.007 119.238C1.28602 118.567 1.70255 117.961 2.22984 117.46C3.37535 116.38 4.8515 115.718 6.41985 115.58L6.76985 117.58C5.6588 117.722 4.60043 118.138 3.68987 118.79C3.29361 119.088 2.97556 119.477 2.76305 119.925C2.55053 120.372 2.44992 120.865 2.46986 121.36V121.36Z" stroke="#F4F7F4" stroke-width="0.16" stroke-linejoin="round"/>
<path d="M17.6099 108.15H0.939941V98.2998H2.74994V106.11H8.15994V98.9698H9.91994V106.11H15.7999V98.2998H17.6099V108.15Z" fill="#F4F7F4"/>
<path d="M17.6099 108.15H0.939941V98.2998H2.74994V106.11H8.15994V98.9698H9.91994V106.11H15.7999V98.2998H17.6099V108.15Z" stroke="#F4F7F4" stroke-width="0.16" stroke-linejoin="round"/>
<path d="M17.6099 88.9698H0.939941V86.9298H15.7999V79.0498H17.6099V88.9698Z" fill="#F4F7F4"/>
<path d="M17.6099 88.9698H0.939941V86.9298H15.7999V79.0498H17.6099V88.9698Z" stroke="#F4F7F4" stroke-width="0.16" stroke-linejoin="round"/>
<path d="M17.5901 72.1001L1.12012 69.6101L2.59012 59.8701L4.38012 60.1401L3.21012 67.8601L8.55012 68.6601L9.62012 61.6001L11.3601 61.8601L10.3001 68.9201L16.1101 69.8101L17.2801 62.0901L19.0701 62.3601L17.5901 72.1001Z" fill="#F4F7F4"/>
<path d="M17.5901 72.1001L1.12012 69.6101L2.59012 59.8701L4.38012 60.1401L3.21012 67.8601L8.55012 68.6601L9.62012 61.6001L11.3601 61.8601L10.3001 68.9201L16.1101 69.8101L17.2801 62.0901L19.0701 62.3601L17.5901 72.1001Z" stroke="#F4F7F4" stroke-width="0.16" stroke-linejoin="round"/>
<path d="M20.1899 53.4408L21.4899 50.6801C22.025 49.7178 22.2585 48.6166 22.1599 47.5199C22.0673 47.0691 21.8619 46.65 21.5628 46.3002C21.2637 45.9504 20.8808 45.6814 20.4499 45.5199C20.0758 45.2997 19.6516 45.1789 19.2177 45.1684C18.7837 45.1579 18.3542 45.2585 17.9699 45.4604C17.0992 46.1158 16.4304 47.0025 16.0399 48.0199L14.7199 50.8207L20.1899 53.4408ZM13.1299 50.1108L14.5499 47.1108C15.4832 45.1108 15.1499 43.7538 13.5499 43.0405C13.2224 42.8704 12.8588 42.7817 12.4899 42.7817C12.1209 42.7817 11.7573 42.8704 11.4299 43.0405C10.6835 43.4647 10.1047 44.1313 9.78989 44.9301L8.36987 47.9301L13.1299 50.1108ZM20.9499 56.06L5.87988 48.9604L8.36987 43.7504C8.86936 42.5485 9.80545 41.5802 10.9899 41.0405C11.5244 40.803 12.1053 40.688 12.69 40.7035C13.2748 40.7191 13.8487 40.8647 14.3699 41.1303C15.0319 41.3911 15.5929 41.8575 15.9709 42.4604C16.3488 43.0632 16.5237 43.7714 16.4699 44.4809H16.5299C17.0914 43.8843 17.8259 43.4784 18.6299 43.3207C19.5523 43.132 20.5114 43.2625 21.3499 43.6908C21.9788 43.9441 22.5436 44.3334 23.0036 44.8315C23.4636 45.3295 23.8073 45.9237 24.0099 46.5707C24.3306 48.143 24.0675 49.778 23.2699 51.1703L20.9499 56.06Z" fill="#F4F7F4"/>
<path d="M20.1899 53.4408L21.4899 50.6801C22.025 49.7178 22.2585 48.6166 22.1599 47.5199C22.0673 47.0691 21.8619 46.65 21.5628 46.3002C21.2637 45.9504 20.8808 45.6814 20.4499 45.5199C20.0758 45.2997 19.6516 45.1789 19.2177 45.1684C18.7837 45.1579 18.3542 45.2584 17.9699 45.4604C17.0992 46.1158 16.4304 47.0025 16.0399 48.0199L14.7199 50.8207L20.1899 53.4408ZM13.1299 50.1108L14.5499 47.1108C15.4832 45.1108 15.1499 43.7538 13.5499 43.0405C13.2224 42.8704 12.8588 42.7817 12.4899 42.7817C12.1209 42.7817 11.7573 42.8704 11.4299 43.0405C10.6835 43.4647 10.1047 44.1313 9.78989 44.9301L8.36987 47.9301L13.1299 50.1108ZM20.9499 56.06L5.87988 48.9604L8.36987 43.7504C8.86936 42.5485 9.80545 41.5802 10.9899 41.0405C11.5244 40.803 12.1053 40.688 12.69 40.7035C13.2748 40.7191 13.8487 40.8647 14.3699 41.1303C15.0319 41.3911 15.5929 41.8575 15.9709 42.4604C16.3488 43.0632 16.5237 43.7714 16.4699 44.4809H16.5299C17.0914 43.8843 17.8259 43.4784 18.6299 43.3207C19.5523 43.132 20.5114 43.2625 21.3499 43.6908C21.9788 43.9441 22.5436 44.3334 23.0036 44.8315C23.4636 45.3295 23.8073 45.9237 24.0099 46.5707C24.3306 48.143 24.0675 49.778 23.2699 51.1703L20.9499 56.06Z" stroke="#F4F7F4" stroke-width="0.16" stroke-linejoin="round"/>
<path d="M24.3099 33.4008L26.3999 31.0502C27.0689 30.3674 27.5002 29.4875 27.6299 28.5404C27.653 28.0876 27.5637 27.636 27.3701 27.226C27.1764 26.816 26.8844 26.4607 26.5199 26.1908C24.9599 24.7908 23.3399 25.0406 21.6799 26.9106L19.6199 29.2201L24.3099 33.4008ZM29.3699 40.6L16.9199 29.5307L20.4299 25.5307C21.3518 24.3708 22.6562 23.5765 24.1099 23.2904C25.3803 23.2335 26.6284 23.6387 27.623 24.4311C28.6177 25.2235 29.2915 26.349 29.5199 27.6C29.6092 28.7574 29.3101 29.9119 28.6699 30.8803L36.3699 32.7504L34.8999 34.4106L27.4099 32.5902L25.6699 34.5902L30.7599 39.1107L29.3699 40.6Z" fill="#F4F7F4"/>
<path d="M24.3099 33.4008L26.3999 31.0502C27.0689 30.3674 27.5002 29.4875 27.6299 28.5404C27.653 28.0876 27.5637 27.636 27.3701 27.226C27.1764 26.816 26.8844 26.4607 26.5199 26.1908C24.9599 24.7908 23.3399 25.0406 21.6799 26.9106L19.6199 29.2201L24.3099 33.4008ZM29.3699 40.6L16.9199 29.5307L20.4299 25.5307C21.3518 24.3708 22.6562 23.5765 24.1099 23.2904C25.3803 23.2335 26.6284 23.6387 27.623 24.4311C28.6177 25.2235 29.2915 26.349 29.5199 27.6C29.6092 28.7574 29.3101 29.9119 28.6699 30.8803L36.3699 32.7504L34.8999 34.4106L27.4099 32.5902L25.6699 34.5902L30.7599 39.1107L29.3699 40.6Z" stroke="#F4F7F4" stroke-width="0.16" stroke-linejoin="round"/>
<path d="M45.4898 20.1396L38.3398 13.9404L40.6898 23.1299L45.4898 20.1396ZM49.5598 23.46L46.8798 21.29L41.0898 24.9102L41.9498 28.21L40.1898 29.3203L36.0498 12.25L37.8098 11.1602L51.3098 22.3701L49.5598 23.46Z" fill="#F4F7F4"/>
<path d="M45.4898 20.1396L38.3398 13.9404L40.6898 23.1299L45.4898 20.1396ZM49.5598 23.46L46.8798 21.29L41.0898 24.9102L41.9498 28.21L40.1898 29.3203L36.0498 12.25L37.8098 11.1602L51.3098 22.3701L49.5598 23.46Z" stroke="#F4F7F4" stroke-width="0.16" stroke-linejoin="round"/>
<path d="M60.4398 19.2201L56.4798 4.91014L51.0698 6.41014L50.5898 4.66014L63.3198 1.14014L63.7998 2.89014L58.4098 4.38014L62.3698 18.6901L60.4398 19.2201Z" fill="#F4F7F4"/>
<path d="M60.4398 19.2201L56.4798 4.91014L51.0698 6.41014L50.5898 4.66014L63.3198 1.14014L63.7998 2.89014L58.4098 4.38014L62.3698 18.6901L60.4398 19.2201Z" stroke="#F4F7F4" stroke-width="0.16" stroke-linejoin="round"/>
<path d="M73.79 16.7301L74.07 0.0800781L83.92 0.240078L83.89 2.05008L76.08 1.92008L75.99 7.32008L83.13 7.44008L83.1 9.20008L75.96 9.08008L75.87 14.9601L83.67 15.0901L83.64 16.9001L73.79 16.7301Z" fill="#F4F7F4"/>
<path d="M73.79 16.7301L74.07 0.0800781L83.92 0.240078L83.89 2.05008L76.08 1.92008L75.99 7.32008L83.13 7.44008L83.1 9.20008L75.96 9.08008L75.87 14.9601L83.67 15.0901L83.64 16.9001L73.79 16.7301Z" stroke="#F4F7F4" stroke-width="0.16" stroke-linejoin="round"/>
<path d="M109.77 24.5593C110.284 24.8826 110.874 25.066 111.481 25.0905C112.088 25.1151 112.691 24.9806 113.23 24.6999C114.805 23.8279 116.093 22.518 116.94 20.9294C117.971 19.5039 118.562 17.8074 118.64 16.0495C118.648 15.444 118.501 14.8468 118.213 14.3142C117.924 13.7816 117.505 13.3312 116.994 13.0065C116.483 12.6818 115.897 12.4932 115.292 12.4587C114.688 12.4242 114.085 12.5448 113.54 12.8093C112.003 13.638 110.744 14.9013 109.92 16.4401C108.871 17.9079 108.255 19.64 108.14 21.4401C108.106 22.0586 108.24 22.6744 108.527 23.2233C108.814 23.7723 109.243 24.2334 109.77 24.5593ZM108.77 26.1394C108.082 25.7108 107.492 25.1418 107.04 24.4694C106.582 23.7559 106.276 22.9564 106.14 22.1198C105.999 21.0839 106.084 20.0298 106.39 19.03C106.772 17.7121 107.349 16.4577 108.1 15.3093C109.172 13.3189 110.915 11.7744 113.02 10.9499C113.824 10.6411 114.689 10.5213 115.547 10.5993C116.405 10.6773 117.234 10.9513 117.97 11.4001C118.702 11.8659 119.314 12.496 119.759 13.2409C120.203 13.9858 120.467 14.8249 120.53 15.6901C120.699 17.9594 120.07 20.2162 118.75 22.07C118.043 23.2426 117.167 24.3035 116.15 25.2194C115.385 25.9213 114.478 26.4498 113.49 26.7692C112.684 26.9984 111.841 27.0634 111.01 26.9597C110.218 26.8437 109.458 26.5642 108.78 26.1394H108.77Z" fill="#F4F7F4"/>
<path d="M109.77 24.5593C110.284 24.8826 110.874 25.066 111.481 25.0905C112.088 25.1151 112.691 24.9806 113.23 24.6999C114.805 23.8279 116.093 22.518 116.94 20.9294C117.971 19.5039 118.562 17.8074 118.64 16.0495C118.648 15.444 118.501 14.8468 118.213 14.3142C117.924 13.7816 117.505 13.3312 116.994 13.0065C116.483 12.6818 115.897 12.4932 115.292 12.4587C114.688 12.4242 114.085 12.5448 113.54 12.8093C112.003 13.638 110.744 14.9013 109.92 16.4401C108.871 17.9079 108.255 19.64 108.14 21.4401C108.106 22.0586 108.24 22.6744 108.527 23.2233C108.814 23.7723 109.243 24.2334 109.77 24.5593V24.5593ZM108.77 26.1394C108.082 25.7108 107.492 25.1418 107.04 24.4694C106.582 23.7559 106.276 22.9564 106.14 22.1198C105.999 21.0839 106.084 20.0298 106.39 19.03C106.772 17.7121 107.349 16.4577 108.1 15.3093C109.172 13.3189 110.915 11.7744 113.02 10.9499C113.824 10.6411 114.689 10.5213 115.547 10.5993C116.405 10.6773 117.234 10.9513 117.97 11.4001C118.702 11.8659 119.314 12.496 119.759 13.2409C120.203 13.9858 120.467 14.8249 120.53 15.6901C120.699 17.9594 120.07 20.2162 118.75 22.07C118.043 23.2426 117.167 24.3035 116.15 25.2194C115.385 25.9213 114.478 26.4498 113.49 26.7692C112.684 26.9984 111.841 27.0634 111.01 26.9597C110.218 26.8437 109.458 26.5642 108.78 26.1394H108.77Z" stroke="#F4F7F4" stroke-width="0.16" stroke-linejoin="round"/>
<path d="M122.18 28.8496L130.58 21.3896L131.92 22.9004L123.63 30.2598C121.63 32.0598 121.45 33.9504 123.19 35.9004C123.516 36.3308 123.928 36.6888 124.4 36.9521C124.871 37.2155 125.392 37.3777 125.93 37.4297C126.471 37.4275 127.007 37.3187 127.506 37.1094C128.006 36.9 128.459 36.5945 128.84 36.21L137.17 28.8096L138.49 30.3096L130.09 37.7598C129.539 38.326 128.875 38.7693 128.141 39.0605C127.406 39.3518 126.619 39.4849 125.83 39.4502C124.248 39.2252 122.815 38.3969 121.83 37.1396C120.696 36.0097 120.05 34.4807 120.03 32.8799C120.085 32.0949 120.306 31.331 120.676 30.6367C121.046 29.9424 121.559 29.333 122.18 28.8496Z" fill="#F4F7F4"/>
<path d="M122.18 28.8496L130.58 21.3896L131.92 22.9004L123.63 30.2598C121.63 32.0598 121.45 33.9504 123.19 35.9004C123.516 36.3308 123.928 36.6888 124.4 36.9521C124.871 37.2155 125.392 37.3777 125.93 37.4297C126.471 37.4275 127.007 37.3187 127.506 37.1094C128.006 36.9 128.459 36.5945 128.84 36.21L137.17 28.8096L138.49 30.3096L130.09 37.7598C129.539 38.326 128.875 38.7693 128.141 39.0605C127.406 39.3518 126.619 39.4849 125.83 39.4502C124.248 39.2252 122.815 38.3969 121.83 37.1396C120.696 36.0097 120.05 34.4807 120.03 32.8799C120.085 32.0949 120.306 31.331 120.676 30.6367C121.046 29.9424 121.559 29.333 122.18 28.8496V28.8496Z" stroke="#F4F7F4" stroke-width="0.16" stroke-linejoin="round"/>
<path d="M131.06 50.2801L144.5 43.9701L142.12 38.8801L143.76 38.1201L149.37 50.0701L147.73 50.8401L145.36 45.7801L131.91 52.0901L131.06 50.2801Z" fill="#F4F7F4"/>
<path d="M131.06 50.2801L144.5 43.9701L142.12 38.8801L143.76 38.1201L149.37 50.0701L147.73 50.8401L145.36 45.7801L131.91 52.0901L131.06 50.2801Z" stroke="#F4F7F4" stroke-width="0.16" stroke-linejoin="round"/>
<path d="M141.22 60.7503L141.93 62.7503C140.682 63.0326 139.539 63.6593 138.63 64.5598C138.295 65.0309 138.066 65.569 137.959 66.137C137.852 66.7049 137.869 67.2893 138.01 67.8499C138.081 68.7731 138.512 69.6321 139.21 70.2405C139.513 70.4745 139.862 70.6427 140.234 70.7356C140.605 70.8285 140.992 70.8442 141.37 70.7805C141.742 70.7476 142.103 70.6361 142.429 70.4534C142.755 70.2707 143.038 70.0203 143.26 69.72C143.864 68.586 144.26 67.3537 144.43 66.0803C144.659 64.6478 145.122 63.263 145.8 61.9807C146.07 61.5539 146.433 61.1941 146.863 60.929C147.293 60.6638 147.777 60.5001 148.28 60.4505C148.851 60.3516 149.436 60.3818 149.993 60.5393C150.551 60.6968 151.066 60.9777 151.5 61.3606C152.483 62.2541 153.103 63.4784 153.24 64.8001C153.466 66.1091 153.252 67.4562 152.63 68.6301C152.304 69.2132 151.86 69.7221 151.326 70.1233C150.792 70.5246 150.181 70.8094 149.53 70.9602L148.81 69.0803C150.81 68.3803 151.667 67.047 151.38 65.0803C151.316 64.2812 150.96 63.534 150.38 62.9807C150.139 62.7637 149.851 62.6043 149.539 62.5159C149.227 62.4275 148.899 62.4116 148.58 62.47C148.292 62.5101 148.016 62.6147 147.774 62.7757C147.532 62.9366 147.329 63.1506 147.18 63.4007C146.678 64.4528 146.341 65.576 146.18 66.7307C145.945 68.3058 145.423 69.8238 144.64 71.2102C144.297 71.6557 143.865 72.0242 143.37 72.2913C142.876 72.5583 142.33 72.7178 141.77 72.76C141.134 72.8701 140.483 72.843 139.858 72.6809C139.234 72.5188 138.652 72.2259 138.15 71.8206C137.014 70.8758 136.295 69.5208 136.15 68.0501C135.59 64.2434 137.28 61.8103 141.22 60.7503Z" fill="#F4F7F4"/>
<path d="M141.22 60.7503L141.93 62.7503C140.682 63.0326 139.539 63.6593 138.63 64.5598C138.295 65.0309 138.066 65.569 137.959 66.137C137.852 66.7049 137.869 67.2893 138.01 67.8499C138.081 68.7731 138.512 69.6321 139.21 70.2405C139.513 70.4745 139.862 70.6427 140.234 70.7356C140.605 70.8285 140.992 70.8442 141.37 70.7805C141.742 70.7476 142.103 70.6361 142.429 70.4534C142.755 70.2707 143.038 70.0203 143.26 69.72C143.864 68.586 144.26 67.3537 144.43 66.0803C144.659 64.6478 145.122 63.263 145.8 61.9807C146.07 61.5539 146.433 61.1941 146.863 60.929C147.293 60.6638 147.777 60.5001 148.28 60.4505C148.851 60.3516 149.436 60.3818 149.993 60.5393C150.551 60.6968 151.066 60.9777 151.5 61.3606C152.483 62.2541 153.103 63.4784 153.24 64.8001C153.466 66.1091 153.252 67.4562 152.63 68.6301C152.304 69.2132 151.86 69.7221 151.326 70.1233C150.792 70.5246 150.181 70.8094 149.53 70.9602L148.81 69.0803C150.81 68.3803 151.667 67.047 151.38 65.0803C151.316 64.2812 150.96 63.534 150.38 62.9807C150.139 62.7637 149.851 62.6043 149.539 62.5159C149.227 62.4275 148.899 62.4116 148.58 62.47C148.292 62.5101 148.016 62.6147 147.774 62.7757C147.532 62.9366 147.329 63.1506 147.18 63.4007C146.678 64.4528 146.341 65.576 146.18 66.7307C145.945 68.3058 145.423 69.8238 144.64 71.2102C144.297 71.6557 143.865 72.0242 143.37 72.2913C142.876 72.5583 142.33 72.7178 141.77 72.76C141.134 72.8701 140.483 72.843 139.858 72.6809C139.234 72.5188 138.652 72.2259 138.15 71.8206C137.014 70.8758 136.295 69.5208 136.15 68.0501C135.59 64.2434 137.28 61.8103 141.22 60.7503Z" stroke="#F4F7F4" stroke-width="0.16" stroke-linejoin="round"/>
<path d="M152 80.25H153.79V90.25H152V86.25H138.91V90.25H137.13V80.25H138.91V84.23H152V80.25Z" fill="#F4F7F4"/>
<path d="M152 80.25H153.79V90.25H152V86.25H138.91V90.25H137.13V80.25H138.91V84.23H152V80.25Z" stroke="#F4F7F4" stroke-width="0.16" stroke-linejoin="round"/>
<path d="M138.94 100.16V102.37C138.94 105.99 141.12 107.8 145.48 107.8C147.205 107.917 148.914 107.413 150.3 106.38C150.858 105.906 151.299 105.312 151.59 104.641C151.881 103.97 152.015 103.24 151.98 102.51V100.16H138.94ZM137.13 98.1602H153.79V102.73C153.793 103.654 153.624 104.569 153.29 105.43C152.947 106.286 152.445 107.071 151.81 107.74C151.082 108.481 150.192 109.042 149.21 109.38C148.014 109.806 146.75 110.013 145.48 109.99C144.121 110.019 142.767 109.809 141.48 109.37C140.474 109.04 139.574 108.45 138.87 107.66C138.284 106.969 137.829 106.176 137.53 105.32C137.235 104.441 137.09 103.517 137.1 102.59L137.13 98.1602Z" fill="#F4F7F4"/>
<path d="M138.94 100.16V102.37C138.94 105.99 141.12 107.8 145.48 107.8C147.205 107.917 148.914 107.413 150.3 106.38C150.858 105.906 151.299 105.312 151.59 104.641C151.881 103.97 152.015 103.24 151.98 102.51V100.16H138.94ZM137.13 98.1602H153.79V102.73C153.793 103.654 153.624 104.569 153.29 105.43C152.947 106.286 152.445 107.071 151.81 107.74C151.082 108.481 150.192 109.042 149.21 109.38C148.014 109.806 146.75 110.013 145.48 109.99C144.121 110.019 142.767 109.809 141.48 109.37C140.474 109.04 139.574 108.45 138.87 107.66C138.284 106.969 137.829 106.176 137.53 105.32C137.235 104.441 137.09 103.517 137.1 102.59L137.13 98.1602Z" stroke="#F4F7F4" stroke-width="0.16" stroke-linejoin="round"/>
<path d="M137.13 117.27H153.79V127.12H151.98V119.31H146.57V126.45H144.81V119.31H138.94V127.12H137.13V117.27Z" fill="#F4F7F4"/>
<path d="M137.13 117.27H153.79V127.12H151.98V119.31H146.57V126.45H144.81V119.31H138.94V127.12H137.13V117.27Z" stroke="#F4F7F4" stroke-width="0.16" stroke-linejoin="round"/>
</g>
<defs>
<clipPath id="clip0_541_3703">
<rect width="154.74" height="155.33" fill="white"/>
</clipPath>
</defs>
</svg>
