<svg width="1196" height="372" viewBox="0 0 1196 372" fill="none" xmlns="http://www.w3.org/2000/svg">
<path d="M316.909 238.118C297.221 304.821 242.115 310.115 185.427 310.115C106.252 310.115 46.5018 258.976 46.5018 185.974C46.5018 112.971 106.252 61.8853 185.427 61.8853C241.218 61.8853 291.415 81.8961 314.85 133.882H367C354.754 63.1558 297.01 0 182.26 0C80.494 0 0 83.9607 0 186.026C0 291.904 79.7551 372 185.479 372C281.017 372 351.007 331.025 366.894 238.118H316.909Z" fill="#F3F0E9"/>
<path d="M460.034 14H415V351H673V295.446H467.233C465.324 295.446 463.493 294.688 462.142 293.337C460.792 291.987 460.034 290.156 460.034 288.246V14Z" fill="#F3F0E9"/>
<path d="M859.772 4C758.593 4 682 80.4992 682 181.975C682 283.45 758.39 360 859.772 360C961.154 360 1038 283.501 1038 181.975C1038 80.4485 961.357 4 859.772 4ZM859.772 300.776C783.888 300.776 726.57 251.837 726.57 181.975C726.57 112.112 783.837 63.2236 859.772 63.2236C935.708 63.2236 993.38 112.163 993.38 181.975C993.38 251.787 935.91 300.776 859.772 300.776Z" fill="#F3F0E9"/>
<path d="M1048 67.523H1206.06C1207.93 67.523 1209.73 68.2681 1211.06 69.5944C1212.38 70.9208 1213.13 72.7197 1213.13 74.5954V344H1256.87V74.5954C1256.87 72.7197 1257.62 70.9208 1258.94 69.5944C1260.27 68.2681 1262.07 67.523 1263.94 67.523H1422V13H1048V67.523Z" fill="#F3F0E9"/>
</svg>
