<svg width="28" height="20" viewBox="0 0 28 20" fill="none" xmlns="http://www.w3.org/2000/svg">
<path fill-rule="evenodd" clip-rule="evenodd" d="M0.875 9.99996C0.875 9.73474 0.973772 9.48039 1.14959 9.29285C1.3254 9.10531 1.56386 8.99996 1.8125 8.99996L23.9244 8.99996L18.0238 2.70796C17.8477 2.52018 17.7488 2.26551 17.7488 1.99996C17.7488 1.73441 17.8477 1.47973 18.0238 1.29196C18.1998 1.10418 18.4385 0.998695 18.6875 0.998695C18.9365 0.998695 19.1752 1.10418 19.3513 1.29196L26.8513 9.29196C26.9386 9.38485 27.0078 9.4952 27.0551 9.61669C27.1024 9.73818 27.1267 9.86842 27.1267 9.99996C27.1267 10.1315 27.1024 10.2617 27.0551 10.3832C27.0078 10.5047 26.9386 10.6151 26.8513 10.708L19.3513 18.708C19.1752 18.8957 18.9365 19.0012 18.6875 19.0012C18.4385 19.0012 18.1998 18.8957 18.0238 18.708C17.8477 18.5202 17.7488 18.2655 17.7488 18C17.7488 17.7344 17.8477 17.4797 18.0238 17.292L23.9244 11L1.8125 11C1.56386 11 1.3254 10.8946 1.14959 10.7071C0.973772 10.5195 0.875 10.2652 0.875 9.99996Z" fill="#AF663F"/>
</svg>
