<svg width="341" height="370" viewBox="0 0 341 370" fill="none" xmlns="http://www.w3.org/2000/svg">
<path d="M341 201.139V145.443H245.271C243.908 145.438 242.571 145.818 241.414 146.54C240.257 147.262 239.328 148.297 238.732 149.525L200.837 225.846L149.811 175.735L152.062 174.661C191.297 155.702 211.021 127.129 211.021 89.6937C211.271 78.0091 209.19 66.3921 204.901 55.5237C200.613 44.6552 194.202 34.754 186.045 26.4003C177.888 18.0466 168.149 11.4086 157.399 6.87521C146.648 2.34187 135.103 0.00447002 123.44 0C72.7345 0 34.4644 38.7778 34.4644 90.1771C34.4644 116.602 43.6299 135.615 68.3929 160.428L70.1617 162.201L67.8568 163.221C24.9772 182.503 0 219.347 0 264.247C0 323.327 47.3819 370 107.949 370C149.382 370 187.062 356.626 211.986 305.549L275.609 370L340.786 369.678L235.623 262.636L264.031 205.168C264.644 203.957 265.579 202.94 266.733 202.229C267.887 201.518 269.215 201.141 270.57 201.139H341ZM123.172 44.6857C145.094 44.6857 162.299 63.8061 162.299 88.2436C162.299 124.175 115.614 143.349 115.614 143.349C115.614 143.349 83.4543 120.039 83.4543 90.1771C83.6151 63.8061 100.231 44.6857 123.172 44.6857ZM173.609 265.59C174.697 266.657 175.43 268.034 175.708 269.533C175.986 271.033 175.796 272.582 175.163 273.969C168.999 287.127 148.739 322.307 108.164 322.307C73.9673 322.307 49.2043 299.319 49.2043 263.657C49.2043 231.431 68.1784 206.457 101.357 195.393L173.609 265.59Z" fill="#F3F0E9"/>
</svg>
